<svg width="161" height="100" viewBox="0 0 161 100" fill="none" xmlns="http://www.w3.org/2000/svg">
<rect x="142.061" y="14.0015" width="9.76277" height="9.76277" rx="4.88138" stroke="white" stroke-width="1.21951"/>
<path d="M144.84 16.2729H146.894C147.295 16.2729 147.644 16.3327 147.941 16.4522C148.237 16.5717 148.465 16.7485 148.625 16.9827C148.788 17.2169 148.869 17.5061 148.869 17.8502C148.869 18.1489 148.822 18.3986 148.729 18.5994C148.636 18.8001 148.506 18.9662 148.338 19.0977C148.174 19.2267 147.981 19.333 147.761 19.4167L147.349 19.6497H145.625L145.618 18.6782H146.894C147.054 18.6782 147.187 18.6496 147.292 18.5922C147.397 18.5349 147.476 18.4536 147.528 18.3485C147.583 18.2409 147.611 18.1131 147.611 17.9649C147.611 17.8143 147.583 17.6853 147.528 17.5778C147.473 17.4702 147.392 17.3878 147.285 17.3304C147.179 17.2731 147.049 17.2444 146.894 17.2444H146.098V21.4922H144.84V16.2729ZM147.697 21.4922L146.543 19.1837L147.876 19.1765L149.045 21.4384V21.4922H147.697Z" fill="white"/>
<path d="M81.6647 4.85594C96.5769 4.96326 111.679 7.78277 125.762 15.0511C132.982 18.7779 139.44 23.5096 144.455 29.9828C149.099 35.9779 151.943 42.6852 151.821 50.4072C151.689 58.6218 148.372 65.5877 143.104 71.6852C135.879 80.0462 126.601 85.3535 116.382 89.1242C103.928 93.7194 91.0111 95.4657 77.7672 95.1145C65.7281 94.7974 54.055 92.6901 42.8647 88.1877C34.5086 84.8267 26.855 80.3096 20.5086 73.8072C15.4111 68.5877 11.7184 62.5681 10.3525 55.3145C9.17691 49.0608 10.055 43.0511 12.7379 37.2803C15.6306 31.0657 20.0208 26.0803 25.333 21.8559C33.4989 15.3681 42.8306 11.2511 52.8111 8.48521C61.9867 5.94375 71.3623 4.88033 81.6647 4.84131V4.85594ZM58.2501 63.4657C66.5184 63.2852 71.5428 57.9925 71.333 49.6852C71.1233 41.4413 65.9379 36.4023 57.8354 36.5633C49.5135 36.7291 44.6306 42.0169 44.8257 50.6511C45.0062 58.5584 50.3281 63.6413 58.2501 63.4657ZM113.494 37.2462C116.509 42.3925 119.406 47.3584 122.328 52.3096C122.714 52.9584 122.909 53.6023 122.894 54.3681C122.855 56.8462 122.899 59.3242 122.865 61.8023C122.855 62.4998 122.987 62.8169 123.787 62.7974C125.938 62.7437 128.094 62.7535 130.245 62.7974C130.953 62.812 131.133 62.573 131.123 61.895C131.089 59.3389 131.123 56.7779 131.099 54.2169C131.094 53.5877 131.245 53.0511 131.562 52.4998C134.284 47.7535 136.987 42.9974 139.679 38.2364C139.845 37.9486 140.187 37.695 140.026 37.2511C137.504 37.2511 134.982 37.295 132.47 37.2267C131.64 37.2023 131.26 37.4998 130.918 38.2023C129.679 40.7242 128.377 43.2169 127.016 45.8901C126.704 45.3242 126.484 44.9486 126.289 44.5633C125.192 42.3974 124.089 40.2316 123.006 38.0559C122.757 37.5584 122.528 37.2218 121.85 37.2316C119.133 37.2803 116.411 37.2511 113.489 37.2511L113.494 37.2462ZM41.1672 46.8413H41.172C41.172 44.0803 41.1281 41.3194 41.1964 38.5584C41.2208 37.5584 41.0598 37.1389 39.9135 37.212C38.055 37.3291 36.1769 37.3047 34.3135 37.2218C33.2891 37.1779 32.9476 37.3925 32.9672 38.5145C33.0403 43.3437 33.0062 48.1779 32.9915 53.0072C32.9915 53.8169 32.9476 54.6364 32.8257 55.4316C32.6696 56.4462 32.0208 56.973 30.972 57.0023C29.9233 57.0267 29.1623 56.695 28.8842 55.573C28.733 54.9681 28.7281 54.3681 28.7233 53.7633C28.7167 52.4364 28.0322 51.773 26.6696 51.773C25.8159 51.773 24.9623 51.773 24.1135 51.773C22.2078 51.773 21.3151 52.7372 21.4354 54.6657C21.7233 59.2608 23.7672 62.1047 27.5184 63.0462C29.6745 63.5877 31.8696 63.6218 34.0452 63.2072C38.7574 62.3047 41.0989 59.4706 41.1623 54.6413C41.1964 52.0413 41.1672 49.4462 41.1672 46.8462V46.8413ZM75.0647 49.9291C75.0647 53.8657 75.0696 57.8072 75.0598 61.7438C75.0598 62.3584 75.0159 62.8023 75.9086 62.7974C81.7964 62.7584 87.6842 62.7633 93.5769 62.7974C94.333 62.7974 94.4403 62.4901 94.4257 61.8608C94.3964 60.2364 94.372 58.612 94.4354 56.9876C94.4647 56.1925 94.2355 55.9633 93.4257 55.973C90.4208 56.0218 87.4159 55.9535 84.4111 56.0169C83.4842 56.0364 83.2745 55.7779 83.2794 54.8755C83.3233 49.3535 83.2794 43.8316 83.3233 38.3096C83.3281 37.4706 83.1428 37.1925 82.2647 37.2218C80.1964 37.2901 78.1233 37.2803 76.0501 37.2218C75.2452 37.1974 75.0403 37.4413 75.0501 38.2316C75.0891 42.1291 75.0696 46.0267 75.0696 49.9242L75.0647 49.9291ZM97.7428 50.012C97.7428 53.9486 97.7623 57.8901 97.7281 61.8267C97.7233 62.5681 97.9135 62.7974 98.6745 62.7925C104.523 62.7633 110.372 62.7633 116.221 62.7925C116.923 62.7925 117.128 62.5681 117.109 61.8901C117.07 60.2657 117.045 58.6413 117.118 57.0169C117.157 56.1242 116.826 55.9584 116.016 55.973C113.255 56.0218 110.494 55.9925 107.733 55.9925C106.566 55.9925 105.982 55.4283 105.982 54.2998C105.982 48.9828 105.957 43.6608 106.006 38.3437C106.016 37.4072 105.753 37.1877 104.86 37.2218C102.874 37.2901 100.879 37.2852 98.8891 37.2218C98.0355 37.1974 97.7037 37.3389 97.7184 38.3194C97.7867 42.2169 97.7476 46.1145 97.7476 50.012H97.7428Z" fill="white"/>
<path d="M63.0886 49.6806C63.03 51.4806 62.9471 52.9391 62.391 54.3196C61.6544 56.1489 60.3276 56.9879 58.2007 57.022C56.2007 57.0562 54.5568 56.4025 53.8203 54.4221C52.7422 51.5099 52.7422 48.5294 53.8203 45.6172C54.4983 43.783 55.9812 42.9879 58.2007 43.022C60.3422 43.0513 61.6642 43.8952 62.3861 45.7245C62.5666 46.1733 62.7324 46.6416 62.8007 47.1147C62.9422 48.0757 63.0203 49.0464 63.0837 49.6806H63.0886Z" fill="white"/>
</svg>
