<svg width="124" height="79" viewBox="0 0 124 79" fill="none" xmlns="http://www.w3.org/2000/svg">
<path d="M62.4859 0.012732C75.4595 0.106098 88.5987 2.55907 100.851 8.88249C107.132 12.1248 112.751 16.2414 117.113 21.8731C121.154 27.0888 123.628 32.9242 123.522 39.6423C123.407 46.789 120.521 52.8493 115.938 58.1542C109.653 65.4282 101.581 70.0456 92.6898 73.3261C81.8551 77.3239 70.6173 78.8432 59.0951 78.5377C48.6211 78.2618 38.4654 76.4284 28.7299 72.5113C21.4601 69.5873 14.8014 65.6574 9.28013 60.0003C4.84525 55.4593 1.63262 50.2223 0.444327 43.9117C-0.578453 38.471 0.18545 33.2425 2.5196 28.222C5.03623 22.8152 8.85574 18.478 13.4774 14.8027C20.5816 9.15834 28.7002 5.57649 37.3833 3.17019C45.366 0.959122 53.5228 0.0339512 62.4859 0V0.012732ZM42.1152 51.0032C49.3086 50.8462 53.6798 46.2416 53.4973 39.0142C53.3149 31.842 48.8036 27.458 41.7545 27.5981C34.5144 27.7424 30.2662 32.3428 30.436 39.8545C30.593 46.7339 35.2231 51.156 42.1152 51.0032ZM90.1774 28.1922C92.8001 32.6696 95.321 36.9899 97.8631 41.2974C98.1984 41.8619 98.3681 42.422 98.3554 43.0883C98.3214 45.2442 98.3596 47.4001 98.3299 49.5561C98.3214 50.1629 98.436 50.4388 99.132 50.4218C101.004 50.3751 102.879 50.3836 104.751 50.4218C105.366 50.4345 105.523 50.2266 105.515 49.6367C105.485 47.4129 105.515 45.1848 105.494 42.9568C105.489 42.4093 105.621 41.9425 105.897 41.4629C108.265 37.3336 110.616 33.1958 112.959 29.0538C113.103 28.8034 113.4 28.5827 113.26 28.1965C111.066 28.1965 108.872 28.2347 106.686 28.1753C105.965 28.154 105.634 28.4129 105.337 29.024C104.259 31.2181 103.126 33.3868 101.941 35.7124C101.67 35.2201 101.479 34.8934 101.309 34.5581C100.354 32.6738 99.3952 30.7895 98.453 28.8967C98.2366 28.4639 98.0371 28.171 97.4472 28.1795C95.0834 28.2219 92.7152 28.1965 90.1732 28.1965L90.1774 28.1922ZM27.2531 36.54H27.2573C27.2573 34.138 27.2191 31.7359 27.2785 29.3339C27.2997 28.4639 27.1597 28.0989 26.1624 28.1625C24.5454 28.2644 22.9115 28.2432 21.2904 28.171C20.3992 28.1328 20.1021 28.3196 20.1191 29.2957C20.1827 33.4971 20.153 37.7028 20.1403 41.9043C20.1403 42.6088 20.1021 43.3218 19.996 44.0135C19.8602 44.8962 19.2957 45.3546 18.3833 45.38C17.4709 45.4013 16.8088 45.1127 16.5669 44.1366C16.4354 43.6103 16.4311 43.0883 16.4269 42.5621C16.4212 41.4078 15.8256 40.8306 14.6402 40.8306C13.8975 40.8306 13.1548 40.8306 12.4164 40.8306C10.7584 40.8306 9.98179 41.6695 10.0865 43.3472C10.3369 47.345 12.1151 49.8192 15.3786 50.6382C17.2544 51.1093 19.1642 51.139 21.057 50.7783C25.1566 49.9932 27.1936 47.5275 27.2488 43.326C27.2785 41.064 27.2531 38.8062 27.2531 36.5442V36.54ZM56.7439 39.2264C56.7439 42.6512 56.7482 46.0803 56.7397 49.5051C56.7397 50.0399 56.7015 50.426 57.4781 50.4218C62.6005 50.3879 67.7229 50.3921 72.8495 50.4218C73.5074 50.4218 73.6007 50.1544 73.588 49.607C73.5625 48.1938 73.5413 46.7805 73.5965 45.3673C73.6219 44.6756 73.4225 44.4761 72.718 44.4846C70.1037 44.527 67.4895 44.4676 64.8752 44.5228C64.0689 44.5398 63.8864 44.3148 63.8907 43.5297C63.9289 38.7256 63.8907 33.9215 63.9289 29.1174C63.9331 28.3875 63.7718 28.1456 63.0079 28.171C61.2085 28.2304 59.4049 28.222 57.6012 28.171C56.901 28.1498 56.7227 28.362 56.7312 29.0495C56.7652 32.4404 56.7482 35.8313 56.7482 39.2221L56.7439 39.2264ZM76.4738 39.2985C76.4738 42.7234 76.4908 46.1524 76.4611 49.5773C76.4569 50.2223 76.6224 50.4218 77.2844 50.4176C82.3729 50.3921 87.4613 50.3921 92.5497 50.4176C93.1609 50.4176 93.3391 50.2223 93.3221 49.6324C93.2882 48.2192 93.267 46.806 93.3306 45.3928C93.3646 44.6162 93.076 44.4719 92.3715 44.4846C89.9694 44.527 87.5674 44.5016 85.1653 44.5016C84.1496 44.5016 83.6418 44.0107 83.6418 43.0289C83.6418 38.4031 83.6206 33.773 83.663 29.1471C83.6715 28.3323 83.4423 28.1413 82.6657 28.171C80.9384 28.2304 79.2027 28.2262 77.4712 28.171C76.7285 28.1498 76.4399 28.2729 76.4526 29.1259C76.512 32.5168 76.4781 35.9077 76.4781 39.2985H76.4738Z" fill="#010F48"/>
<path d="M46.3246 39.01C46.2737 40.576 46.2015 41.845 45.7177 43.046C45.0769 44.6374 43.9225 45.3674 42.0722 45.3971C40.3322 45.4268 38.902 44.8581 38.2612 43.1351C37.3233 40.6015 37.3233 38.0085 38.2612 35.4749C38.8511 33.8792 40.1412 33.1874 42.0722 33.2171C43.9353 33.2426 45.0854 33.9768 45.7135 35.5682C45.8705 35.9587 46.0148 36.3661 46.0742 36.7777C46.1973 37.6138 46.2652 38.4583 46.3203 39.01H46.3246Z" fill="#010F48"/>
<path d="M41.6949 67.5809C41.6949 67.4309 41.6792 67.2983 41.6478 67.1831C41.6199 67.0645 41.5641 66.9563 41.4803 66.8586C41.3966 66.7609 41.2762 66.6649 41.1192 66.5707C40.9621 66.473 40.7597 66.3736 40.512 66.2724C40.2189 66.1537 39.9415 66.0281 39.6797 65.8955C39.418 65.7594 39.1842 65.6024 38.9784 65.4244C38.7725 65.2465 38.6102 65.0371 38.4916 64.7963C38.3764 64.5555 38.3188 64.2746 38.3188 63.9536C38.3188 63.6395 38.3747 63.3534 38.4863 63.0952C38.6015 62.8335 38.7637 62.6101 38.9731 62.4252C39.1825 62.2368 39.4302 62.092 39.7164 61.9908C40.006 61.8896 40.3253 61.839 40.6742 61.839C41.1663 61.839 41.5885 61.9419 41.9409 62.1478C42.2934 62.3537 42.5655 62.6328 42.7575 62.9853C42.9494 63.3377 43.0454 63.7355 43.0454 64.1787H41.6478C41.6478 63.9484 41.6129 63.7442 41.5431 63.5663C41.4768 63.3848 41.3704 63.2435 41.2238 63.1423C41.0773 63.0411 40.8888 62.9905 40.6585 62.9905C40.4422 62.9905 40.2642 63.0341 40.1246 63.1214C39.9851 63.2051 39.8821 63.3203 39.8158 63.4668C39.7495 63.6099 39.7164 63.7739 39.7164 63.9588C39.7164 64.0914 39.746 64.2118 39.8054 64.32C39.8682 64.4247 39.9537 64.5206 40.0618 64.6079C40.17 64.6951 40.3009 64.7789 40.4544 64.8591C40.6114 64.9359 40.7859 65.0109 40.9778 65.0842C41.3303 65.2168 41.6391 65.3634 41.9043 65.5239C42.1695 65.6809 42.3893 65.8589 42.5638 66.0578C42.7418 66.2532 42.8744 66.4748 42.9616 66.7225C43.0488 66.9703 43.0925 67.2529 43.0925 67.5705C43.0925 67.8845 43.0384 68.1706 42.9302 68.4289C42.822 68.6871 42.665 68.9087 42.4591 69.0936C42.2532 69.2786 42.0037 69.4216 41.7106 69.5228C41.421 69.6205 41.0982 69.6694 40.7423 69.6694C40.4003 69.6694 40.0741 69.6205 39.7635 69.5228C39.4564 69.4216 39.1842 69.2698 38.9469 69.0674C38.7097 68.8651 38.523 68.6103 38.3869 68.3032C38.2508 67.9927 38.1827 67.628 38.1827 67.2093H39.5803C39.5803 67.4431 39.6065 67.6455 39.6588 67.8165C39.7111 67.984 39.7897 68.12 39.8943 68.2247C39.999 68.3259 40.1246 68.401 40.2712 68.4498C40.4178 68.4952 40.5835 68.5179 40.7685 68.5179C40.9883 68.5179 41.1663 68.4777 41.3024 68.3975C41.4384 68.3172 41.5379 68.2073 41.6007 68.0677C41.6635 67.9246 41.6949 67.7624 41.6949 67.5809ZM45.5107 63.9013V69.5647H44.1655V63.9013H45.5107ZM44.0974 62.4252C44.0974 62.2123 44.1637 62.0379 44.2963 61.9018C44.4289 61.7622 44.6104 61.6924 44.8407 61.6924C45.071 61.6924 45.2507 61.7622 45.3798 61.9018C45.5089 62.0379 45.5735 62.2123 45.5735 62.4252C45.5735 62.6346 45.5089 62.809 45.3798 62.9486C45.2507 63.0847 45.071 63.1528 44.8407 63.1528C44.6104 63.1528 44.4289 63.0847 44.2963 62.9486C44.1637 62.809 44.0974 62.6346 44.0974 62.4252ZM48.065 65.1104V69.5647H46.7198V63.9013H47.976L48.065 65.1104ZM47.8451 66.5341L47.4578 66.5393C47.4508 66.1241 47.491 65.7489 47.5782 65.414C47.6689 65.0755 47.798 64.7858 47.9655 64.5451C48.133 64.3043 48.3337 64.1194 48.5675 63.9902C48.8013 63.8611 49.063 63.7966 49.3526 63.7966C49.5759 63.7966 49.7783 63.835 49.9598 63.9117C50.1447 63.9885 50.3035 64.1106 50.4361 64.2781C50.5687 64.4456 50.6716 64.6655 50.7449 64.9376C50.8182 65.2098 50.8548 65.5431 50.8548 65.9374V69.5647H49.5096V65.9269C49.5096 65.6722 49.4817 65.4733 49.4259 65.3302C49.3735 65.1836 49.295 65.0807 49.1903 65.0214C49.0891 64.9586 48.9583 64.9272 48.7978 64.9272C48.6477 64.9272 48.5134 64.969 48.3947 65.0528C48.2761 65.133 48.1749 65.2482 48.0912 65.3982C48.0109 65.5448 47.9498 65.7158 47.908 65.9112C47.8661 66.1031 47.8451 66.3107 47.8451 66.5341ZM54.0268 68.5493C54.1733 68.5493 54.3024 68.5196 54.4141 68.4603C54.5258 68.3975 54.613 68.2998 54.6758 68.1672C54.7386 68.0346 54.7718 67.8618 54.7753 67.649H56.0419C56.0385 68.0607 55.946 68.4184 55.7645 68.722C55.5866 69.0256 55.3475 69.2594 55.0474 69.4234C54.7508 69.5874 54.4176 69.6694 54.0477 69.6694C53.6708 69.6694 53.3411 69.6101 53.0584 69.4914C52.7793 69.3693 52.549 69.1931 52.3675 68.9628C52.1861 68.729 52.05 68.4446 51.9592 68.1096C51.8685 67.7746 51.8232 67.3925 51.8232 66.9633V66.5027C51.8232 66.0735 51.8685 65.6914 51.9592 65.3564C52.05 65.0214 52.1861 64.7387 52.3675 64.5084C52.549 64.2746 52.7793 64.0984 53.0584 63.9798C53.3376 63.8576 53.6656 63.7966 54.0425 63.7966C54.4438 63.7966 54.7927 63.8803 55.0893 64.0478C55.3859 64.2153 55.618 64.4613 55.7855 64.7858C55.953 65.1069 56.0385 65.5029 56.0419 65.974H54.7753C54.7718 65.7437 54.7421 65.5518 54.6863 65.3982C54.6305 65.2412 54.5467 65.1226 54.435 65.0423C54.3269 64.9586 54.189 64.9167 54.0215 64.9167C53.8401 64.9167 53.6918 64.9533 53.5766 65.0266C53.465 65.0964 53.3795 65.1993 53.3201 65.3354C53.2608 65.4715 53.219 65.6373 53.1945 65.8327C53.1736 66.0281 53.1631 66.2514 53.1631 66.5027V66.9633C53.1631 67.2215 53.1736 67.4501 53.1945 67.649C53.2155 67.8444 53.2556 68.0101 53.3149 68.1462C53.3742 68.2788 53.4597 68.38 53.5714 68.4498C53.6865 68.5161 53.8383 68.5493 54.0268 68.5493ZM59.1616 69.6694C58.7847 69.6694 58.4497 69.6118 58.1566 69.4967C57.867 69.3815 57.6209 69.214 57.4186 68.9942C57.2162 68.7743 57.0609 68.5039 56.9527 68.1829C56.848 67.8618 56.7957 67.4937 56.7957 67.0784V66.5707C56.7957 66.0996 56.8498 65.6914 56.9579 65.3459C57.0661 64.997 57.2162 64.7091 57.4081 64.4823C57.6035 64.252 57.8373 64.081 58.1095 63.9693C58.3851 63.8541 58.6887 63.7966 59.0202 63.7966C59.3762 63.7966 59.6867 63.8559 59.9519 63.9745C60.2206 64.0897 60.4422 64.2624 60.6167 64.4927C60.7911 64.723 60.9203 65.0092 61.004 65.3511C61.0912 65.6896 61.1349 66.0822 61.1349 66.5288V67.1727H57.3976V66.1939H59.8158V66.063C59.8089 65.8187 59.7792 65.6111 59.7268 65.4401C59.6745 65.2691 59.5908 65.14 59.4756 65.0528C59.3639 64.9621 59.2104 64.9167 59.015 64.9167C58.8615 64.9167 58.7289 64.9481 58.6172 65.0109C58.5055 65.0702 58.4148 65.1645 58.345 65.2936C58.2787 65.4192 58.2281 65.5884 58.1932 65.8013C58.1583 66.0107 58.1409 66.2671 58.1409 66.5707V67.0784C58.1409 67.3471 58.1653 67.5757 58.2142 67.7641C58.263 67.9491 58.3345 68.1009 58.4288 68.2195C58.523 68.3347 58.6381 68.4184 58.7742 68.4707C58.9103 68.5231 59.0691 68.5493 59.2505 68.5493C59.5227 68.5493 59.7617 68.5004 59.9676 68.4027C60.1735 68.3015 60.3515 68.1672 60.5015 67.9997L61.0616 68.8214C60.9604 68.9575 60.8225 69.0919 60.6481 69.2245C60.4736 69.3536 60.2625 69.46 60.0147 69.5438C59.7705 69.6275 59.4861 69.6694 59.1616 69.6694ZM67.6044 61.9227V69.5647H66.2592V63.5872L64.7726 64.1787V63.0376L67.4473 61.9227H67.6044ZM70.7763 68.4603H70.8496C71.216 68.4603 71.5231 68.4062 71.7708 68.298C72.0221 68.1863 72.2227 68.0276 72.3728 67.8217C72.5228 67.6123 72.631 67.3628 72.6973 67.0732C72.7636 66.7836 72.7967 66.4591 72.7967 66.0996V64.6969C72.7967 64.4072 72.774 64.156 72.7287 63.9431C72.6868 63.7268 72.6257 63.5471 72.5455 63.404C72.4687 63.2574 72.3797 63.1475 72.2785 63.0742C72.1808 62.9975 72.0779 62.9591 71.9697 62.9591C71.8371 62.9591 71.7202 63.001 71.619 63.0847C71.5178 63.1685 71.4323 63.2819 71.3625 63.4249C71.2962 63.568 71.2456 63.732 71.2108 63.917C71.1759 64.0984 71.1584 64.2903 71.1584 64.4927C71.1584 64.6951 71.1741 64.887 71.2055 65.0685C71.2404 65.2499 71.291 65.4105 71.3573 65.55C71.4271 65.6896 71.5161 65.7995 71.6243 65.8798C71.7324 65.9601 71.8598 66.0002 72.0064 66.0002C72.1285 66.0002 72.2419 65.9653 72.3466 65.8955C72.4513 65.8257 72.5437 65.7332 72.624 65.6181C72.7077 65.5029 72.774 65.3738 72.8229 65.2308C72.8718 65.0842 72.8997 64.9359 72.9066 64.7858L73.3725 65.0109C73.3725 65.2622 73.3289 65.5099 73.2416 65.7542C73.1544 65.9984 73.034 66.2218 72.8805 66.4242C72.7269 66.6231 72.5472 66.7818 72.3413 66.9005C72.139 67.0191 71.9191 67.0784 71.6818 67.0784C71.3748 67.0784 71.1043 67.0121 70.8705 66.8795C70.6367 66.7469 70.4413 66.5637 70.2843 66.3299C70.1308 66.0961 70.0156 65.824 69.9388 65.5134C69.8621 65.2028 69.8237 64.8713 69.8237 64.5189C69.8237 64.1525 69.8725 63.807 69.9702 63.4825C70.0679 63.158 70.2093 62.8736 70.3942 62.6293C70.5792 62.3816 70.8042 62.1879 71.0694 62.0483C71.3381 61.9053 71.64 61.8337 71.975 61.8337C72.3169 61.8337 72.6205 61.9105 72.8857 62.064C73.1544 62.2176 73.3812 62.4339 73.5662 62.7131C73.7511 62.9922 73.8924 63.322 73.9901 63.7024C74.0878 64.0792 74.1367 64.4927 74.1367 64.9429V65.4244C74.1367 65.9025 74.0983 66.3544 74.0215 66.7801C73.9448 67.2023 73.8244 67.5879 73.6604 67.9369C73.4999 68.2823 73.2905 68.5824 73.0323 68.8371C72.7775 69.0884 72.4705 69.2838 72.111 69.4234C71.7551 69.5595 71.3416 69.6275 70.8705 69.6275H70.7763V68.4603ZM79.5698 67.4815C79.5698 67.956 79.4756 68.3573 79.2872 68.6853C79.1022 69.0099 78.8475 69.2559 78.523 69.4234C78.2019 69.5874 77.8355 69.6694 77.4238 69.6694C77.012 69.6694 76.6421 69.5874 76.3141 69.4234C75.9896 69.2559 75.7331 69.0099 75.5447 68.6853C75.3563 68.3573 75.262 67.956 75.262 67.4815C75.262 67.1604 75.3144 66.8708 75.4191 66.6126C75.5273 66.3544 75.6773 66.1328 75.8692 65.9478C76.0611 65.7594 76.288 65.6146 76.5497 65.5134C76.8149 65.4122 77.1028 65.3616 77.4133 65.3616C77.8286 65.3616 78.1985 65.4506 78.523 65.6286C78.851 65.803 79.1075 66.049 79.2924 66.3666C79.4774 66.6806 79.5698 67.0523 79.5698 67.4815ZM78.2246 67.3925C78.2246 67.1517 78.1915 66.9441 78.1252 66.7696C78.0589 66.5917 77.9647 66.4556 77.8425 66.3613C77.7204 66.2636 77.5773 66.2148 77.4133 66.2148C77.2458 66.2148 77.1028 66.2636 76.9841 66.3613C76.8655 66.4556 76.773 66.5917 76.7067 66.7696C76.6404 66.9441 76.6072 67.1517 76.6072 67.3925C76.6072 67.6333 76.6387 67.8391 76.7015 68.0101C76.7678 68.1811 76.862 68.3137 76.9841 68.4079C77.1062 68.5021 77.2528 68.5493 77.4238 68.5493C77.5948 68.5493 77.7396 68.5021 77.8582 68.4079C77.9769 68.3137 78.0676 68.1811 78.1304 68.0101C78.1932 67.8391 78.2246 67.6333 78.2246 67.3925ZM79.439 63.9588C79.439 64.3462 79.3517 64.6881 79.1773 64.9847C79.0063 65.2814 78.769 65.5134 78.4654 65.6809C78.1653 65.8484 77.8181 65.9321 77.4238 65.9321C77.0295 65.9321 76.6788 65.8484 76.3717 65.6809C76.0646 65.5134 75.8239 65.2814 75.6494 64.9847C75.4784 64.6881 75.3929 64.3462 75.3929 63.9588C75.3929 63.5017 75.4801 63.1161 75.6546 62.8021C75.8291 62.4845 76.0681 62.2438 76.3717 62.0797C76.6753 61.9157 77.0242 61.8337 77.4186 61.8337C77.8129 61.8337 78.1618 61.9157 78.4654 62.0797C78.7725 62.2438 79.0115 62.4845 79.1825 62.8021C79.3535 63.1161 79.439 63.5017 79.439 63.9588ZM78.0938 64.0216C78.0938 63.8088 78.0676 63.6238 78.0153 63.4668C77.9664 63.3063 77.8914 63.1824 77.7902 63.0952C77.6925 63.0045 77.5686 62.9591 77.4186 62.9591C77.2755 62.9591 77.1534 63.001 77.0522 63.0847C76.951 63.1685 76.8724 63.2906 76.8166 63.4511C76.7643 63.6116 76.7381 63.8018 76.7381 64.0216C76.7381 64.2345 76.7643 64.4212 76.8166 64.5817C76.869 64.7422 76.9457 64.8678 77.0469 64.9586C77.1516 65.0493 77.2772 65.0947 77.4238 65.0947C77.5703 65.0947 77.6925 65.0493 77.7902 64.9586C77.8914 64.8678 77.9664 64.7422 78.0153 64.5817C78.0676 64.4212 78.0938 64.2345 78.0938 64.0216ZM85.0762 68.4446V69.5647H80.6376V68.6016L82.7104 65.9426C82.9197 65.6565 83.0837 65.4052 83.2024 65.1889C83.321 64.9725 83.4048 64.7789 83.4536 64.6079C83.5025 64.4334 83.5269 64.2659 83.5269 64.1054C83.5269 63.8786 83.4972 63.6797 83.4379 63.5087C83.3786 63.3342 83.2914 63.1999 83.1762 63.1057C83.0645 63.0079 82.9267 62.9591 82.7627 62.9591C82.5568 62.9591 82.3876 63.0167 82.255 63.1318C82.1224 63.247 82.0229 63.4058 81.9566 63.6081C81.8938 63.8105 81.8624 64.0408 81.8624 64.2991H80.5172C80.5172 63.8524 80.6062 63.4424 80.7842 63.069C80.9656 62.6922 81.2238 62.3921 81.5588 62.1687C81.8973 61.9454 82.3038 61.8337 82.7784 61.8337C83.232 61.8337 83.6141 61.921 83.9247 62.0954C84.2353 62.2699 84.4708 62.5159 84.6313 62.8335C84.7953 63.151 84.8773 63.5296 84.8773 63.9693C84.8773 64.2136 84.8442 64.4543 84.7779 64.6916C84.7116 64.9289 84.6191 65.1645 84.5005 65.3982C84.3818 65.632 84.237 65.8693 84.066 66.1101C83.895 66.3474 83.7049 66.5917 83.4955 66.8429L82.344 68.4446H85.0762Z" fill="white"/>
</svg>
